<svg width="128" height="103" viewBox="0 0 128 103" fill="none" xmlns="http://www.w3.org/2000/svg">
<path d="M103.438 21.9318V34.4955C103.438 35.5358 102.598 36.3801 101.563 36.3801H86.8777C85.8427 36.3801 85.0027 35.5358 85.0027 34.4955V21.9318C85.0027 20.889 85.8427 20.0472 86.8777 20.0472H101.563C102.598 20.0472 103.438 20.889 103.438 21.9318Z" fill="#555760"/>
<path d="M8.9505 20.0459H1.875C0.8395 20.0459 0 20.8894 0 21.9305V34.4942C0 35.5352 0.8395 36.3787 1.875 36.3787H8.9505C9.986 36.3787 10.8255 35.5352 10.8255 34.4942V21.9305C10.8255 20.8897 9.986 20.0459 8.9505 20.0459Z" fill="#555760"/>
<path d="M128 21.9317V34.4954C128 35.5357 127.16 36.38 126.125 36.38H119.05C118.015 36.38 117.175 35.5357 117.175 34.4954V21.9317C117.175 20.8889 118.015 20.0471 119.05 20.0471H126.125C127.16 20.0471 128 20.8889 128 21.9317Z" fill="#555760"/>
<path d="M128 28.3969V34.4953C128 35.5356 127.16 36.3798 126.125 36.3798H119.05C118.015 36.3798 117.175 35.5356 117.175 34.4953V28.3969C117.175 29.4371 118.015 30.2814 119.05 30.2814H126.125C127.16 30.2814 128 29.4371 128 28.3969Z" fill="#2E384D"/>
<path d="M10.825 28.3956V34.4941C10.825 35.5343 9.985 36.3786 8.95 36.3786H1.875C0.84 36.3786 0 35.5343 0 34.4941V28.3956C0 29.4359 0.84 30.2802 1.875 30.2802H8.95C9.985 30.2802 10.825 29.4359 10.825 28.3956Z" fill="#2E384D"/>
<path d="M103.438 30.282V34.4959C103.438 35.5361 102.598 36.3804 101.563 36.3804H86.8779C85.8429 36.3804 85.0029 35.5361 85.0029 34.4959V30.282H103.438Z" fill="#2E384D"/>
<path d="M17.0704 11.9314V44.494C17.0704 45.8811 16.5104 47.1349 15.6054 48.0445C14.7029 48.9541 13.4529 49.5145 12.0729 49.5145C11.1629 49.5145 10.3104 49.2708 9.57544 48.8411C8.08044 47.9767 7.07544 46.3535 7.07544 44.494V11.9314C7.07544 10.0719 8.08044 8.44869 9.57544 7.5843C10.3104 7.15463 11.1629 6.91089 12.0729 6.91089C14.8329 6.91089 17.0704 9.15728 17.0704 11.9314V11.9314Z" fill="#3FB023"/>
<path d="M17.0704 11.9311V44.4938C17.0704 45.8808 16.5104 47.1347 15.6054 48.0443C14.7029 48.9539 13.4529 49.5143 12.0729 49.5143C11.1629 49.5143 10.3104 49.2705 9.57544 48.8408C9.95544 48.6222 10.3029 48.3534 10.6104 48.0443C11.5129 47.1347 12.0729 45.8808 12.0729 44.4938V11.9311C12.0729 10.0717 11.0679 8.45096 9.57544 7.58406C10.3104 7.15438 11.1629 6.91064 12.0729 6.91064C14.8329 6.91064 17.0704 9.15704 17.0704 11.9311Z" fill="#04D361"/>
<path d="M120.938 11.9304V44.4931C120.938 45.8801 120.378 47.134 119.473 48.0436C118.57 48.9532 117.32 49.5135 115.94 49.5135C115.03 49.5135 114.178 49.2698 113.443 48.8401C111.948 47.9757 110.943 46.3525 110.943 44.4931V11.9304C110.943 10.0709 111.948 8.44771 113.443 7.58333C114.178 7.15365 115.03 6.90991 115.94 6.90991C118.7 6.90991 120.938 9.15631 120.938 11.9304V11.9304Z" fill="#3FB023"/>
<path d="M120.938 11.9304V44.4931C120.938 45.8801 120.378 47.134 119.473 48.0436C118.57 48.9532 117.32 49.5135 115.94 49.5135C115.03 49.5135 114.178 49.2698 113.443 48.8401C113.823 48.6215 114.17 48.3526 114.478 48.0436C115.38 47.134 115.94 45.8801 115.94 44.4931V11.9304C115.94 10.0709 114.935 8.45023 113.443 7.58333C114.178 7.15365 115.03 6.90991 115.94 6.90991C118.7 6.90991 120.938 9.15631 120.938 11.9304Z" fill="#4DD82B"/>
<path d="M88.7523 21.766V34.4955C88.7523 34.9101 88.6148 35.3147 88.3623 35.6439L78.5573 48.4337L81.4723 79.0968C81.5223 79.6244 81.3473 80.1496 80.9923 80.5441C80.6373 80.9361 80.1348 81.1597 79.6048 81.1597H48.3948C47.8648 81.1597 47.3623 80.9361 47.0073 80.5441C46.6523 80.1496 46.4773 79.6244 46.5273 79.0968L47.0598 73.5034L47.1548 72.4983L49.4123 48.7302L39.9898 41.4181C39.5298 41.0613 39.2598 40.511 39.2598 39.9281V14.5066C39.2598 13.4664 40.0998 12.6221 41.1348 12.6221H79.6498C84.6673 12.6221 88.7523 16.7229 88.7523 21.766V21.766Z" fill="#FFD3C0"/>
<path d="M88.7522 21.766V34.4955C88.7522 34.9101 88.6147 35.3147 88.3622 35.6439L78.5572 48.4337L81.4722 79.0968C81.5222 79.6244 81.3472 80.1496 80.9922 80.5441C80.6372 80.9361 80.1347 81.1597 79.6047 81.1597H48.3947C47.8647 81.1597 47.3622 80.9361 47.0072 80.5441C46.6522 80.1496 46.4772 79.6244 46.5272 79.0968L47.0597 73.5034L47.1547 72.4983H72.8547C73.3847 72.4983 73.8872 72.2747 74.2422 71.8827C74.5972 71.4882 74.7722 70.963 74.7222 70.4353L72.8072 48.3156L83.6122 34.0181C83.8647 33.6889 84.0022 33.2844 84.0022 32.8673V20.1402C84.0022 17.0269 80.9472 14.2729 78.5747 12.6221H79.6497C84.6672 12.6221 88.7522 16.7229 88.7522 21.766V21.766Z" fill="#FFB9A1"/>
<path d="M78.4745 21.9318V28.7162C78.4745 29.0805 78.3695 29.4399 78.1695 29.7439L77.8195 30.2816L74.417 35.5232C74.072 36.0584 73.4795 36.3801 72.847 36.3801H26.437C25.402 36.3801 24.562 35.5358 24.562 34.4955V21.9318C24.562 21.4267 24.762 20.9443 25.1195 20.59C25.4745 20.2357 25.962 20.0397 26.4595 20.0472H76.6195C77.647 20.0573 78.4745 20.899 78.4745 21.9318V21.9318Z" fill="#555760"/>
<path d="M24.562 30.2816H77.8195L74.417 35.5232C74.072 36.0584 73.4795 36.38 72.847 36.38H26.437C25.402 36.38 24.562 35.5358 24.562 34.4955V30.2816Z" fill="#2E384D"/>
<path d="M28.3126 5.64914V50.7755C28.3126 53.8913 25.7926 56.4242 22.6926 56.4242C21.6701 56.4242 20.7101 56.1478 19.8826 55.6628C18.2026 54.6879 17.0701 52.8636 17.0701 50.7755V5.64914C17.0701 3.56105 18.2026 1.73679 19.8826 0.76185C20.7101 0.27689 21.6701 0.000488281 22.6926 0.000488281C25.7926 0.000488281 28.3126 2.53334 28.3126 5.64914V5.64914Z" fill="#4953B8"/>
<path d="M28.3126 5.64914V50.7755C28.3126 53.8913 25.7926 56.4242 22.6926 56.4242C21.6701 56.4242 20.7101 56.1478 19.8826 55.6628C21.5601 54.6879 22.6926 52.8611 22.6926 50.7755V5.64914C22.6926 3.56356 21.5601 1.73679 19.8826 0.76185C20.7101 0.27689 21.6701 0.000488281 22.6926 0.000488281C25.7926 0.000488281 28.3126 2.53334 28.3126 5.64914V5.64914Z" fill="#5965E0"/>
<path d="M110.93 5.64865V50.7751C110.93 53.8909 108.41 56.4237 105.31 56.4237C104.288 56.4237 103.328 56.1473 102.5 55.6624C100.82 54.6874 99.6877 52.8632 99.6877 50.7751V5.64865C99.6877 3.56056 100.82 1.73631 102.5 0.761363C103.328 0.276403 104.288 0 105.31 0C108.41 0 110.93 2.53285 110.93 5.64865V5.64865Z" fill="#5297E8"/>
<path d="M110.93 5.64865V50.7751C110.93 53.8909 108.41 56.4237 105.31 56.4237C104.288 56.4237 103.328 56.1473 102.5 55.6624C104.178 54.6874 105.31 52.8606 105.31 50.7751V5.64865C105.31 3.56307 104.178 1.73631 102.5 0.761363C103.328 0.276403 104.288 0 105.31 0C108.41 0 110.93 2.53285 110.93 5.64865V5.64865Z" fill="#5965E0"/>
<path d="M44.1625 7.68323C41.4552 7.68323 39.2607 9.88891 39.2607 12.61V23.4693C39.2607 26.1903 41.4552 28.396 44.1625 28.396C46.8697 28.396 49.0642 26.1903 49.0642 23.4693V12.61C49.0642 9.88916 46.8695 7.68323 44.1625 7.68323V7.68323Z" fill="#FFD3C0"/>
<path d="M53.9655 7.68323C51.2582 7.68323 49.0637 9.88891 49.0637 12.61V23.4693C49.0637 26.1903 51.2582 28.396 53.9655 28.396C56.6727 28.396 58.8672 26.1903 58.8672 23.4693V12.61C58.8672 9.88916 56.6727 7.68323 53.9655 7.68323V7.68323Z" fill="#FFB9A1"/>
<path d="M63.7692 7.68323C61.0619 7.68323 58.8674 9.88891 58.8674 12.61V23.4693C58.8674 26.1903 61.0619 28.396 63.7692 28.396C66.4764 28.396 68.6709 26.1903 68.6709 23.4693V12.61C68.6709 9.88916 66.4764 7.68323 63.7692 7.68323V7.68323Z" fill="#FFD3C0"/>
<path d="M73.5731 7.68323C70.8659 7.68323 68.6714 9.88891 68.6714 12.61V23.4693C68.6714 26.1903 70.8659 28.396 73.5731 28.396C76.2804 28.396 78.4749 26.1903 78.4749 23.4693V12.61C78.4746 9.88916 76.2801 7.68323 73.5731 7.68323V7.68323Z" fill="#FFB9A1"/>
<path d="M89.2802 101.767C88.9227 102.169 88.4127 102.4 87.8777 102.4H40.1227C39.5877 102.4 39.0777 102.169 38.7202 101.767C38.3652 101.365 38.1977 100.829 38.2602 100.294L38.7827 95.8667L40.7627 79.0539C40.8727 78.1066 41.6727 77.3905 42.6252 77.3905H85.3752C86.3277 77.3905 87.1277 78.1066 87.2377 79.0539L89.7402 100.294C89.8027 100.829 89.6352 101.365 89.2802 101.767V101.767Z" fill="#EEF6FF"/>
<path d="M89.2802 101.767C88.9227 102.169 88.4127 102.4 87.8777 102.4H40.1227C39.5877 102.4 39.0777 102.169 38.7202 101.767C38.3652 101.365 38.1977 100.829 38.2602 100.294L38.7827 95.8667H80.3852C80.9202 95.8667 81.4302 95.6356 81.7852 95.2335C82.1427 94.8315 82.3077 94.2963 82.2452 93.761L80.5927 79.0539C80.4802 78.1066 79.6802 77.3905 78.7302 77.3905H85.3752C86.3277 77.3905 87.1277 78.1066 87.2377 79.0539L89.7402 100.294C89.8027 100.829 89.6352 101.365 89.2802 101.767V101.767Z" fill="#DAE6EF"/>
</svg>
